<svg width="506" height="512" viewBox="0 0 506 512" fill="none" xmlns="http://www.w3.org/2000/svg">
<path fill-rule="evenodd" clip-rule="evenodd" d="M9.02001 1.74001C7.10601 2.70801 4.51801 5.02901 3.27001 6.89801L1.00001 10.296V73.698C1.00001 142.357 0.794007 139.682 6.48501 145L9.16001 147.5L73.83 147.758C136.975 148.011 138.577 147.97 141.759 146.018C143.552 144.918 145.912 142.552 147.005 140.759C148.932 137.599 148.993 135.601 148.996 74.718C149 5.64701 149.149 7.38101 142.863 2.89901L139.5 0.500007L76 0.240007C17.061 -0.0019929 12.25 0.106007 9.02001 1.74001ZM187.071 1.75201C185.185 2.71301 182.71 4.77001 181.571 6.32301C179.535 9.09801 179.495 10.21 179.228 72.813C179.038 117.233 179.287 137.279 180.051 139.122C180.653 140.576 182.492 143.055 184.138 144.633L187.131 147.5H253H318.869L321.862 144.633C323.508 143.055 325.347 140.576 325.949 139.122C326.713 137.279 326.962 117.233 326.772 72.813C326.505 10.21 326.465 9.09801 324.429 6.32301C319.639 -0.205993 322.002 0.0030071 253 0.0030071C195.471 0.0030071 190.227 0.142007 187.071 1.75201ZM365.017 1.85101C363.118 2.87001 360.65 4.92701 359.532 6.42401C357.545 9.08501 357.494 10.574 357.242 73.323C356.989 135.976 357.03 137.577 358.982 140.759C360.082 142.552 362.448 144.918 364.241 146.018C367.423 147.97 369.025 148.011 432.17 147.758L496.84 147.5L499.515 145C505.206 139.682 505 142.357 505 73.698V10.296L502.73 6.89801C497.949 -0.258993 500.677 0.0030071 430.984 0.0020071C372.049 7.10192e-06 368.271 0.106007 365.017 1.85101ZM9.02001 179.752C7.10601 180.713 4.50901 183.043 3.24901 184.929L0.958008 188.358L1.22901 252.929C1.49301 315.724 1.55501 317.573 3.50001 320.166C4.60001 321.632 6.85001 323.657 8.50001 324.666C11.307 326.382 15.357 326.519 71.378 326.794C138.233 327.123 140.045 326.991 144.935 321.421C146.605 319.519 148.218 316.959 148.519 315.732C148.82 314.504 148.939 285.15 148.784 250.5L148.5 187.5L146.27 184.373C141.585 177.806 143.761 178 74.849 178.002C17.486 178.003 12.222 178.143 9.02001 179.752ZM187.032 179.836C185.125 180.863 182.65 182.927 181.532 184.424C179.545 187.085 179.494 188.584 179.229 251.393L178.958 315.641L181.229 318.979C182.478 320.814 184.77 323.257 186.323 324.408C189.119 326.479 189.778 326.5 253 326.5C316.222 326.5 316.881 326.479 319.677 324.408C321.23 323.257 323.512 320.828 324.75 319.01L327 315.704V252.82C327 183.638 327.149 185.382 320.863 180.899L317.5 178.5L254 178.234C193.628 177.982 190.329 178.061 187.032 179.836ZM365.218 179.663C363.413 180.553 360.938 182.68 359.718 184.39L357.5 187.5L357.216 250.5C357.061 285.15 357.18 314.504 357.481 315.732C357.782 316.959 359.395 319.519 361.065 321.421C365.955 326.991 367.767 327.123 434.622 326.794C490.643 326.519 494.693 326.382 497.5 324.666C499.15 323.657 501.4 321.632 502.5 320.166C504.445 317.573 504.507 315.724 504.771 252.929L505.042 188.358L502.751 184.929C497.944 177.734 500.714 178.001 431 178.024C375.473 178.043 368.134 178.226 365.218 179.663ZM10 364.706C9.17501 365.008 7.44501 366.21 6.15501 367.377C0.852007 372.178 1.00001 370.141 1.00001 438.302V501.704L3.27001 505.102C8.09401 512.323 5.11901 512.051 76 511.76L139.5 511.5L142.863 509.101C149.149 504.619 149 506.353 148.996 437.282C148.993 376.399 148.932 374.401 147.005 371.241C145.912 369.448 143.552 367.088 141.759 365.995C138.594 364.065 136.673 364.01 75 364.083C40.075 364.124 10.825 364.405 10 364.706ZM188 364.695C187.175 365.003 185.445 366.21 184.155 367.377C178.854 372.175 179 370.19 179.002 437.7C179.003 507.035 178.792 504.638 185.323 509.429C188.11 511.473 188.98 511.5 253 511.5C317.02 511.5 317.89 511.473 320.677 509.429C327.208 504.638 326.997 507.035 326.998 437.7C327 369.695 327.203 372.316 321.515 367L318.84 364.5L254.17 364.318C218.601 364.218 188.825 364.388 188 364.695ZM364.241 365.982C362.448 367.082 360.088 369.448 358.995 371.241C357.068 374.401 357.007 376.399 357.004 437.282C357 506.353 356.851 504.619 363.137 509.101L366.5 511.5L430 511.76C500.881 512.051 497.906 512.323 502.73 505.102L505 501.704V438.302C505 369.643 505.206 372.318 499.515 367L496.84 364.5L432.17 364.242C369.025 363.989 367.423 364.03 364.241 365.982Z" fill="black"/>
</svg>
