<svg width="41" height="42" viewBox="0 0 41 42" fill="none" xmlns="http://www.w3.org/2000/svg">
<path d="M39.3693 6.73135C33.988 6.73135 29.2589 4.85604 24.856 1.02389L24.4484 0.656982L23.2661 1.6354C19.0263 5.05988 14.5011 6.73135 9.48666 6.73135H8.10056V16.5971C8.10056 16.9233 8.14133 17.2902 8.14133 17.6163L5.89911 16.434L8.46747 21.2854C8.50824 21.5708 8.549 21.8969 8.63054 22.1823L0.150879 24.1391L8.95668 26.1775L5.93988 31.8442L10.9543 28.8274C11.3212 29.5612 11.6881 30.2543 12.1366 30.9473L13.6857 37.5924L14.3788 34.0456C16.9879 37.1847 20.3308 39.6716 24.2445 41.2615L24.4891 41.343L24.7337 41.2615C34.518 37.3478 40.8369 27.6451 40.8369 16.5156V6.73135H39.3693ZM39.4101 16.5971C39.4101 27.2375 33.6618 36.1656 24.4076 39.9569C20.4124 38.3262 17.1102 35.7171 14.6234 32.4557L15.4387 28.2974L21.35 31.8442L18.1702 25.8514L27.139 24.0984L18.3332 22.06L21.35 16.3933L15.6833 19.4101L13.645 10.6043L11.6066 19.4101L9.52743 18.3094C9.48666 17.7794 9.44589 17.2086 9.44589 16.5971V8.07668C14.7864 8.07668 19.597 6.32368 24.0815 2.65459L24.4076 2.40999C28.9328 6.24214 33.8249 8.07668 39.3693 8.07668H39.4101V16.5971Z" fill="#272727"/>
</svg>
