<svg width="512" height="386" viewBox="0 0 512 386" fill="none" xmlns="http://www.w3.org/2000/svg">
<path fill-rule="evenodd" clip-rule="evenodd" d="M36.6339 2.58601C11.1439 8.75601 -4.90305 34.755 1.53095 59.458C3.85495 68.379 8.64995 76.461 15.2399 82.562C21.5809 88.432 25.3199 90.635 33.9999 93.613C39.3239 95.44 46.4379 95.5 256.5 95.5H473.5L479.42 93.245C488.166 89.914 492.931 86.824 498.662 80.763C504.497 74.595 508.339 67.635 510.508 59.307C516.964 34.523 500.722 8.62502 474.907 2.54002C465.548 0.334016 45.7569 0.378014 36.6339 2.58601ZM35.2649 147.542C23.0559 150.829 11.5139 159.846 5.77895 170.575C-8.72105 197.698 5.82395 230.728 35.6929 238.508C40.6839 239.808 69.0209 240 256 240C490.988 240 475.911 240.376 487.425 234.221C494.816 230.27 503.086 221.63 506.895 213.878C520.125 186.953 505.439 155.08 476.307 147.492C467.926 145.309 43.3769 145.357 35.2649 147.542ZM40.3969 291.05C22.3049 293.411 6.36995 307.962 1.53095 326.542C-5.03105 351.737 11.6539 378.005 37.7299 383.531C47.8829 385.682 464.117 385.682 474.27 383.531C500.346 378.005 517.031 351.737 510.469 326.542C505.511 307.507 489.817 293.481 470.697 290.997C461.884 289.852 49.1869 289.903 40.3969 291.05Z" fill="black"/>
</svg>
